<svg xmlns="http://www.w3.org/2000/svg" width="138.072" height="35" viewBox="0 0 138.072 35">
    <defs>
        <style>
            .cls-1{fill:#0585ec}
        </style>
    </defs>
    <g id="openxcell_logo" data-name="openxcell logo" transform="translate(232.299 -14)">
        <path id="Path_1" d="M559.968 371.7a12.434 12.434 0 0 0-12.343 0 10.306 10.306 0 0 0-4.022 4.73 18.417 18.417 0 0 0 0 13.947 10.345 10.345 0 0 0 4.006 4.721 12.512 12.512 0 0 0 12.382 0 10.36 10.36 0 0 0 4-4.721 18.414 18.414 0 0 0 0-13.947 10.3 10.3 0 0 0-4.023-4.73zm-1.256 18.555a5.53 5.53 0 0 1-9.831 0 15.406 15.406 0 0 1 .008-13.729 5.531 5.531 0 0 1 9.815 0 15.4 15.4 0 0 1 .008 13.729zm18.939-13.431a5.311 5.311 0 0 0-3.221 1 7.1 7.1 0 0 0-2.234 3v-3.571h-4.561v25.63h4.565V394.2a8.737 8.737 0 0 0 1.626 1.46 5.434 5.434 0 0 0 1.466.661 6.152 6.152 0 0 0 1.663.214 5.919 5.919 0 0 0 5.272-2.97 13.559 13.559 0 0 0 1.884-7.4 12.154 12.154 0 0 0-1.687-6.763 5.38 5.38 0 0 0-4.774-2.574zm.715 14.4a2.884 2.884 0 0 1-2.708 2.014 3.62 3.62 0 0 1-1.686-.429 5.912 5.912 0 0 1-1.776-1.628v-7.458a8.312 8.312 0 0 1 1.828-2.116 3.163 3.163 0 0 1 1.964-.78 2.645 2.645 0 0 1 2.415 1.543 8.822 8.822 0 0 1 .851 4.234 11.351 11.351 0 0 1-.889 4.621zm20.046-12.1a6.4 6.4 0 0 0-5.162-2.3 7.393 7.393 0 0 0-4.434 1.3 8.123 8.123 0 0 0-2.741 3.537 13.11 13.11 0 0 0 .168 10.162 7.465 7.465 0 0 0 3.17 3.57 9.746 9.746 0 0 0 4.8 1.142 19.6 19.6 0 0 0 6.126-1.064V391.9a13.587 13.587 0 0 1-5.132 1.185 5.38 5.38 0 0 1-2.825-.645 4.719 4.719 0 0 1-1.673-1.742 7.369 7.369 0 0 1-.771-3h10.4q.003-6.27-1.927-8.57zm-8.549 5.7a7.514 7.514 0 0 1 1.065-3.6A2.556 2.556 0 0 1 593.1 380a2.323 2.323 0 0 1 1.986 1.115 6.76 6.76 0 0 1 .768 3.708zm23.389-8a5.819 5.819 0 0 0-3.036.9 8.163 8.163 0 0 0-2.727 3.081v-3.554h-4.561V396.1h4.561v-11.856a8.548 8.548 0 0 1 2.2-2.721 3.482 3.482 0 0 1 1.957-.695 1.768 1.768 0 0 1 .979.283 1.92 1.92 0 0 1 .693.833 5.717 5.717 0 0 1 .255 2.094v12.068h4.561v-13.321a6.164 6.164 0 0 0-1.441-4.524 4.712 4.712 0 0 0-3.442-1.433zm22.557.429h-3.7l-3.488 5.978-3.646-5.978h-5.193l5.573 9.376-5.819 9.473h3.775l3.889-6.212 9.1 14.11h5.857l-11.667-17.471zm7.151 15.176a4.747 4.747 0 0 1-1.732-2.344 9.51 9.51 0 0 1-.62-3.458 9.163 9.163 0 0 1 1.074-4.4 3.594 3.594 0 0 1 3.4-2 13.577 13.577 0 0 1 4.385 1.012v-3.673a17.929 17.929 0 0 0-4.708-.738q-4.435 0-6.72 2.738a10.705 10.705 0 0 0-2.286 7.1 11.276 11.276 0 0 0 2.164 7.012 7.592 7.592 0 0 0 6.461 2.858 18.268 18.268 0 0 0 5.227-.841v-3.519a9.751 9.751 0 0 1-4.144 1 4.426 4.426 0 0 1-2.501-.744zm20.449-13.3a6.4 6.4 0 0 0-5.161-2.3 7.392 7.392 0 0 0-4.434 1.3 8.128 8.128 0 0 0-2.742 3.537 13.116 13.116 0 0 0 .169 10.162 7.467 7.467 0 0 0 3.171 3.57 9.743 9.743 0 0 0 4.8 1.142 19.606 19.606 0 0 0 6.127-1.064V391.9a13.59 13.59 0 0 1-5.132 1.185 5.383 5.383 0 0 1-2.826-.645 4.72 4.72 0 0 1-1.673-1.742 7.383 7.383 0 0 1-.771-3h10.4q.002-6.27-1.928-8.57zm-8.548 5.7a7.516 7.516 0 0 1 1.065-3.6A2.556 2.556 0 0 1 658.1 380a2.322 2.322 0 0 1 1.985 1.115 6.756 6.756 0 0 1 .769 3.708zm13.112 11.279h4.561V369h-4.561zM675.742 369v27.105h4.558V369z" class="cls-1" data-name="Path 1" transform="translate(-774.53 -355)"/>
    </g>
</svg>
